<mxfile host="app.diagrams.net" modified="2022-03-28T14:59:32.067Z" agent="5.0 (Windows NT 10.0; Win64; x64) AppleWebKit/537.36 (KHTML, like Gecko) Chrome/99.0.4844.82 Safari/537.36" etag="7c_pFLscSibkLlIAoIzE" version="17.1.2" type="github">
  <diagram id="prjZX4wkgA0BgJ7s4mOM" name="Page-1">
    <mxGraphModel dx="390" dy="218" grid="1" gridSize="10" guides="1" tooltips="1" connect="1" arrows="1" fold="1" page="1" pageScale="1" pageWidth="827" pageHeight="1169" math="0" shadow="0">
      <root>
        <mxCell id="0" />
        <mxCell id="1" parent="0" />
        <mxCell id="6n9kSi0VYIb2uczXsFoc-1" value="IDS ConnectorÂ " style="swimlane;dashed=1;" vertex="1" parent="1">
          <mxGeometry x="57" y="280" width="770" height="520" as="geometry">
            <mxRectangle x="310" y="310" width="130" height="23" as="alternateBounds" />
          </mxGeometry>
        </mxCell>
        <mxCell id="6n9kSi0VYIb2uczXsFoc-4" value="IDS Connector Core" style="swimlane;" vertex="1" parent="6n9kSi0VYIb2uczXsFoc-1">
          <mxGeometry x="30" y="60" width="360" height="200" as="geometry" />
        </mxCell>
        <mxCell id="6n9kSi0VYIb2uczXsFoc-13" value="Routing Logic" style="rounded=0;whiteSpace=wrap;html=1;dashed=1;" vertex="1" parent="6n9kSi0VYIb2uczXsFoc-4">
          <mxGeometry y="60" width="60" height="60" as="geometry" />
        </mxCell>
        <mxCell id="6n9kSi0VYIb2uczXsFoc-11" value="&lt;font face=&quot;Verdana&quot; color=&quot;#ffffff&quot; size=&quot;1&quot;&gt;&lt;b style=&quot;font-size: 12px&quot;&gt;IDS PEP&lt;/b&gt;&lt;/font&gt;" style="rounded=1;whiteSpace=wrap;html=1;fillColor=#E2001A;strokeColor=#E2001A;" vertex="1" parent="6n9kSi0VYIb2uczXsFoc-4">
          <mxGeometry x="259" y="70" width="90" height="40" as="geometry" />
        </mxCell>
        <mxCell id="6n9kSi0VYIb2uczXsFoc-24" value="&lt;b style=&quot;color: rgb(255 , 255 , 255) ; font-family: &amp;#34;verdana&amp;#34;&quot;&gt;&lt;font style=&quot;font-size: 12px&quot;&gt;locale PIP&lt;/font&gt;&lt;/b&gt;" style="rounded=1;whiteSpace=wrap;html=1;fillColor=#F29400;strokeColor=#179C7D;" vertex="1" parent="6n9kSi0VYIb2uczXsFoc-4">
          <mxGeometry x="20" y="155" width="90" height="40" as="geometry" />
        </mxCell>
        <mxCell id="6n9kSi0VYIb2uczXsFoc-12" value="" style="shape=flexArrow;endArrow=classic;html=1;rounded=0;fillColor=#00CC00;exitX=1;exitY=0.5;exitDx=0;exitDy=0;" edge="1" parent="6n9kSi0VYIb2uczXsFoc-4">
          <mxGeometry width="50" height="50" relative="1" as="geometry">
            <mxPoint x="60" y="93" as="sourcePoint" />
            <mxPoint x="262" y="93" as="targetPoint" />
            <Array as="points" />
          </mxGeometry>
        </mxCell>
        <mxCell id="6n9kSi0VYIb2uczXsFoc-50" value="&lt;font style=&quot;font-size: 16px&quot;&gt;2&lt;/font&gt;" style="edgeLabel;html=1;align=center;verticalAlign=middle;resizable=0;points=[];fontSize=15;labelBorderColor=default;fontStyle=1" vertex="1" connectable="0" parent="6n9kSi0VYIb2uczXsFoc-12">
          <mxGeometry x="-0.3366" y="3" relative="1" as="geometry">
            <mxPoint x="-35" y="-15" as="offset" />
          </mxGeometry>
        </mxCell>
        <mxCell id="6n9kSi0VYIb2uczXsFoc-5" value="IDS App" style="swimlane;" vertex="1" parent="6n9kSi0VYIb2uczXsFoc-1">
          <mxGeometry x="540" y="60" width="200" height="200" as="geometry" />
        </mxCell>
        <mxCell id="6n9kSi0VYIb2uczXsFoc-9" value="" style="shape=flexArrow;endArrow=classic;html=1;rounded=0;fillColor=#00CC00;" edge="1" parent="6n9kSi0VYIb2uczXsFoc-1">
          <mxGeometry width="50" height="50" relative="1" as="geometry">
            <mxPoint x="-29" y="153.5" as="sourcePoint" />
            <mxPoint x="31" y="153.5" as="targetPoint" />
          </mxGeometry>
        </mxCell>
        <mxCell id="6n9kSi0VYIb2uczXsFoc-49" value="1" style="edgeLabel;html=1;align=center;verticalAlign=middle;resizable=0;points=[];fontSize=16;fontStyle=1;labelBorderColor=default;" vertex="1" connectable="0" parent="6n9kSi0VYIb2uczXsFoc-9">
          <mxGeometry x="-0.3778" y="1" relative="1" as="geometry">
            <mxPoint y="-17" as="offset" />
          </mxGeometry>
        </mxCell>
        <mxCell id="6n9kSi0VYIb2uczXsFoc-8" value="UC Container" style="swimlane;dashed=1;" vertex="1" parent="6n9kSi0VYIb2uczXsFoc-1">
          <mxGeometry x="30" y="280" width="360" height="200" as="geometry" />
        </mxCell>
        <mxCell id="6n9kSi0VYIb2uczXsFoc-40" value="" style="endArrow=classic;html=1;rounded=0;fontSize=12;fillColor=#00CC00;exitX=0.75;exitY=0;exitDx=0;exitDy=0;entryX=0.75;entryY=1;entryDx=0;entryDy=0;" edge="1" parent="6n9kSi0VYIb2uczXsFoc-8" source="6n9kSi0VYIb2uczXsFoc-25" target="6n9kSi0VYIb2uczXsFoc-26">
          <mxGeometry width="50" height="50" relative="1" as="geometry">
            <mxPoint x="123" y="60" as="sourcePoint" />
            <mxPoint x="173" y="10" as="targetPoint" />
          </mxGeometry>
        </mxCell>
        <mxCell id="6n9kSi0VYIb2uczXsFoc-15" value="&lt;font face=&quot;Verdana&quot; style=&quot;font-size: 18px&quot; color=&quot;#ffffff&quot;&gt;&lt;b&gt;PEP&lt;/b&gt;&lt;/font&gt;" style="rounded=1;whiteSpace=wrap;html=1;fillColor=#E2001A;strokeColor=#E2001A;" vertex="1" parent="6n9kSi0VYIb2uczXsFoc-8">
          <mxGeometry x="260" y="30" width="90" height="40" as="geometry" />
        </mxCell>
        <mxCell id="6n9kSi0VYIb2uczXsFoc-16" value="&lt;b style=&quot;color: rgb(255 , 255 , 255) ; font-family: &amp;#34;verdana&amp;#34; ; font-size: 18px&quot;&gt;PDP&lt;/b&gt;" style="rounded=1;whiteSpace=wrap;html=1;fillColor=#179C7D;strokeColor=#179C7D;" vertex="1" parent="6n9kSi0VYIb2uczXsFoc-8">
          <mxGeometry x="130" y="120" width="90" height="40" as="geometry" />
        </mxCell>
        <mxCell id="6n9kSi0VYIb2uczXsFoc-23" value="&lt;b style=&quot;color: rgb(255 , 255 , 255) ; font-family: &amp;#34;verdana&amp;#34; ; font-size: 18px&quot;&gt;PIP&lt;/b&gt;" style="rounded=1;whiteSpace=wrap;html=1;fillColor=#F29400;strokeColor=#179C7D;" vertex="1" parent="6n9kSi0VYIb2uczXsFoc-8">
          <mxGeometry x="20" y="28" width="90" height="40" as="geometry" />
        </mxCell>
        <mxCell id="6n9kSi0VYIb2uczXsFoc-25" value="&lt;b style=&quot;color: rgb(255 , 255 , 255) ; font-family: &amp;#34;verdana&amp;#34; ; font-size: 18px&quot;&gt;PXP&lt;/b&gt;" style="rounded=1;whiteSpace=wrap;html=1;fillColor=#771C2C;strokeColor=#771C2C;" vertex="1" parent="6n9kSi0VYIb2uczXsFoc-8">
          <mxGeometry x="130" y="30" width="90" height="40" as="geometry" />
        </mxCell>
        <mxCell id="6n9kSi0VYIb2uczXsFoc-26" value="&lt;b style=&quot;color: rgb(255 , 255 , 255) ; font-family: &amp;#34;verdana&amp;#34;&quot;&gt;&lt;font style=&quot;font-size: 12px&quot;&gt;clearing House PXP&lt;/font&gt;&lt;/b&gt;" style="rounded=1;whiteSpace=wrap;html=1;fillColor=#771C2C;strokeColor=#771C2C;" vertex="1" parent="6n9kSi0VYIb2uczXsFoc-8">
          <mxGeometry x="130" y="-192" width="90" height="40" as="geometry" />
        </mxCell>
        <mxCell id="6n9kSi0VYIb2uczXsFoc-36" value="" style="endArrow=classic;html=1;rounded=0;fontSize=12;fillColor=#00CC00;exitX=0;exitY=0.25;exitDx=0;exitDy=0;entryX=0.75;entryY=1;entryDx=0;entryDy=0;" edge="1" parent="6n9kSi0VYIb2uczXsFoc-8" source="6n9kSi0VYIb2uczXsFoc-16" target="6n9kSi0VYIb2uczXsFoc-23">
          <mxGeometry width="50" height="50" relative="1" as="geometry">
            <mxPoint x="123" y="60" as="sourcePoint" />
            <mxPoint x="173" y="10" as="targetPoint" />
            <Array as="points">
              <mxPoint x="88" y="130" />
            </Array>
          </mxGeometry>
        </mxCell>
        <mxCell id="6n9kSi0VYIb2uczXsFoc-37" value="" style="endArrow=classic;html=1;rounded=0;fontSize=12;fillColor=#00CC00;exitX=0.25;exitY=1;exitDx=0;exitDy=0;entryX=0;entryY=0.75;entryDx=0;entryDy=0;" edge="1" parent="6n9kSi0VYIb2uczXsFoc-8" source="6n9kSi0VYIb2uczXsFoc-23" target="6n9kSi0VYIb2uczXsFoc-16">
          <mxGeometry width="50" height="50" relative="1" as="geometry">
            <mxPoint x="123" y="60" as="sourcePoint" />
            <mxPoint x="173" y="30" as="targetPoint" />
            <Array as="points">
              <mxPoint x="43" y="150" />
            </Array>
          </mxGeometry>
        </mxCell>
        <mxCell id="6n9kSi0VYIb2uczXsFoc-39" value="" style="endArrow=classic;html=1;rounded=0;fontSize=12;fillColor=#00CC00;exitX=0.75;exitY=0;exitDx=0;exitDy=0;entryX=0.75;entryY=1;entryDx=0;entryDy=0;" edge="1" parent="6n9kSi0VYIb2uczXsFoc-8" source="6n9kSi0VYIb2uczXsFoc-16" target="6n9kSi0VYIb2uczXsFoc-25">
          <mxGeometry width="50" height="50" relative="1" as="geometry">
            <mxPoint x="123" y="60" as="sourcePoint" />
            <mxPoint x="173" y="10" as="targetPoint" />
          </mxGeometry>
        </mxCell>
        <mxCell id="6n9kSi0VYIb2uczXsFoc-41" value="" style="endArrow=classic;html=1;rounded=0;fontSize=12;fillColor=#00CC00;exitX=0.25;exitY=1;exitDx=0;exitDy=0;entryX=0.25;entryY=0;entryDx=0;entryDy=0;" edge="1" parent="6n9kSi0VYIb2uczXsFoc-8" source="6n9kSi0VYIb2uczXsFoc-26" target="6n9kSi0VYIb2uczXsFoc-25">
          <mxGeometry width="50" height="50" relative="1" as="geometry">
            <mxPoint x="123" y="60" as="sourcePoint" />
            <mxPoint x="173" y="10" as="targetPoint" />
          </mxGeometry>
        </mxCell>
        <mxCell id="6n9kSi0VYIb2uczXsFoc-44" value="" style="endArrow=classic;html=1;rounded=0;fontSize=12;fillColor=#00CC00;exitX=0.25;exitY=1;exitDx=0;exitDy=0;entryX=0.25;entryY=0;entryDx=0;entryDy=0;" edge="1" parent="6n9kSi0VYIb2uczXsFoc-8" source="6n9kSi0VYIb2uczXsFoc-25" target="6n9kSi0VYIb2uczXsFoc-16">
          <mxGeometry width="50" height="50" relative="1" as="geometry">
            <mxPoint x="123" y="60" as="sourcePoint" />
            <mxPoint x="173" y="10" as="targetPoint" />
          </mxGeometry>
        </mxCell>
        <mxCell id="6n9kSi0VYIb2uczXsFoc-45" value="" style="endArrow=classic;html=1;rounded=0;fontSize=12;fillColor=#00CC00;exitX=0.25;exitY=1;exitDx=0;exitDy=0;entryX=1;entryY=0.25;entryDx=0;entryDy=0;" edge="1" parent="6n9kSi0VYIb2uczXsFoc-8" source="6n9kSi0VYIb2uczXsFoc-15" target="6n9kSi0VYIb2uczXsFoc-16">
          <mxGeometry width="50" height="50" relative="1" as="geometry">
            <mxPoint x="123" y="60" as="sourcePoint" />
            <mxPoint x="173" y="10" as="targetPoint" />
            <Array as="points">
              <mxPoint x="283" y="130" />
            </Array>
          </mxGeometry>
        </mxCell>
        <mxCell id="6n9kSi0VYIb2uczXsFoc-47" value="" style="endArrow=classic;html=1;rounded=0;fontSize=12;fillColor=#00CC00;exitX=1;exitY=0.75;exitDx=0;exitDy=0;entryX=0.75;entryY=1;entryDx=0;entryDy=0;" edge="1" parent="6n9kSi0VYIb2uczXsFoc-8" source="6n9kSi0VYIb2uczXsFoc-16" target="6n9kSi0VYIb2uczXsFoc-15">
          <mxGeometry width="50" height="50" relative="1" as="geometry">
            <mxPoint x="123" y="60" as="sourcePoint" />
            <mxPoint x="173" y="10" as="targetPoint" />
            <Array as="points">
              <mxPoint x="328" y="150" />
            </Array>
          </mxGeometry>
        </mxCell>
        <mxCell id="6n9kSi0VYIb2uczXsFoc-34" style="edgeStyle=orthogonalEdgeStyle;rounded=0;orthogonalLoop=1;jettySize=auto;html=1;exitX=0.238;exitY=0.988;exitDx=0;exitDy=0;entryX=0.232;entryY=0.005;entryDx=0;entryDy=0;fontSize=12;fillColor=#00CC00;exitPerimeter=0;entryPerimeter=0;" edge="1" parent="6n9kSi0VYIb2uczXsFoc-1" source="6n9kSi0VYIb2uczXsFoc-24" target="6n9kSi0VYIb2uczXsFoc-23">
          <mxGeometry relative="1" as="geometry" />
        </mxCell>
        <mxCell id="6n9kSi0VYIb2uczXsFoc-27" value="" style="endArrow=classic;html=1;rounded=0;fontSize=12;fillColor=#00CC00;exitX=0.25;exitY=1;exitDx=0;exitDy=0;entryX=0.25;entryY=0;entryDx=0;entryDy=0;" edge="1" parent="6n9kSi0VYIb2uczXsFoc-1" source="6n9kSi0VYIb2uczXsFoc-11" target="6n9kSi0VYIb2uczXsFoc-15">
          <mxGeometry width="50" height="50" relative="1" as="geometry">
            <mxPoint x="340" y="190" as="sourcePoint" />
            <mxPoint x="390" y="140" as="targetPoint" />
          </mxGeometry>
        </mxCell>
        <mxCell id="6n9kSi0VYIb2uczXsFoc-28" value="" style="endArrow=classic;html=1;rounded=0;fontSize=12;fillColor=#00CC00;entryX=0.75;entryY=1;entryDx=0;entryDy=0;exitX=0.75;exitY=0;exitDx=0;exitDy=0;" edge="1" parent="6n9kSi0VYIb2uczXsFoc-1" source="6n9kSi0VYIb2uczXsFoc-15" target="6n9kSi0VYIb2uczXsFoc-11">
          <mxGeometry width="50" height="50" relative="1" as="geometry">
            <mxPoint x="340" y="190" as="sourcePoint" />
            <mxPoint x="390" y="140" as="targetPoint" />
          </mxGeometry>
        </mxCell>
        <mxCell id="6n9kSi0VYIb2uczXsFoc-32" style="edgeStyle=orthogonalEdgeStyle;rounded=0;orthogonalLoop=1;jettySize=auto;html=1;exitX=0.768;exitY=-0.008;exitDx=0;exitDy=0;fontSize=12;fillColor=#00CC00;entryX=0.77;entryY=0.974;entryDx=0;entryDy=0;exitPerimeter=0;entryPerimeter=0;" edge="1" parent="6n9kSi0VYIb2uczXsFoc-1" source="6n9kSi0VYIb2uczXsFoc-23" target="6n9kSi0VYIb2uczXsFoc-24">
          <mxGeometry relative="1" as="geometry">
            <mxPoint x="140" y="260" as="targetPoint" />
          </mxGeometry>
        </mxCell>
        <mxCell id="6n9kSi0VYIb2uczXsFoc-3" value="Clearing House" style="swimlane;" vertex="1" parent="1">
          <mxGeometry x="310" y="10" width="200" height="90" as="geometry" />
        </mxCell>
        <mxCell id="6n9kSi0VYIb2uczXsFoc-31" value="" style="endArrow=classic;html=1;rounded=0;fontSize=12;fillColor=#00CC00;" edge="1" parent="1">
          <mxGeometry width="50" height="50" relative="1" as="geometry">
            <mxPoint x="390" y="440" as="sourcePoint" />
            <mxPoint x="440" y="390" as="targetPoint" />
          </mxGeometry>
        </mxCell>
        <mxCell id="6n9kSi0VYIb2uczXsFoc-48" value="" style="shape=flexArrow;endArrow=classic;html=1;rounded=0;fontSize=12;fillColor=#00CC00;exitX=1;exitY=0.5;exitDx=0;exitDy=0;" edge="1" parent="1">
          <mxGeometry width="50" height="50" relative="1" as="geometry">
            <mxPoint x="437" y="433" as="sourcePoint" />
            <mxPoint x="600" y="433" as="targetPoint" />
          </mxGeometry>
        </mxCell>
      </root>
    </mxGraphModel>
  </diagram>
</mxfile>
